PathFileType	4	(X/Y/Z)	I12_1_OpenSim.trc																																																																																																																						
DataRate	CameraRate	NumFrames	NumMarkers	Units	OrigDataRate	OrigDataStartFrame	OrigNumFrames																																																																																																																		
100	100	4	40	mm	100	1126	3000																																																																																																																		
Frame#	Time	R.ASIS			R.PSIS			S2			L.PSIS			L.ASIS			R.TH1			R.TH2			R.TH3			R.MKnee			R.Knee			R.SH1			R.SH2			R.SH3			R.SH4			R.Ankle			R.MAnkle			R.Heel			R.MT5			R.MT1			L.TH1			L.TH2			L.TH3			L.TH4			L.MKnee			L.Knee			L.SH1			L.SH2			L.SH3			L.Ankle			L.MAnkle			L.Heel			L.MT5			L.MT1			R.Acr			L.Acr			C7			T10			Clav			Sternum			R.Back		
		X1	Y1	Z1	X2	Y2	Z2	X3	Y3	Z3	X4	Y4	Z4	X5	Y5	Z5	X6	Y6	Z6	X7	Y7	Z7	X8	Y8	Z8	X9	Y9	Z9	X10	Y10	Z10	X11	Y11	Z11	X12	Y12	Z12	X13	Y13	Z13	X14	Y14	Z14	X15	Y15	Z15	X16	Y16	Z16	X17	Y17	Z17	X18	Y18	Z18	X19	Y19	Z19	X20	Y20	Z20	X21	Y21	Z21	X22	Y22	Z22	X23	Y23	Z23	X24	Y24	Z24	X25	Y25	Z25	X26	Y26	Z26	X27	Y27	Z27	X28	Y28	Z28	X29	Y29	Z29	X30	Y30	Z30	X31	Y31	Z31	X32	Y32	Z32	X33	Y33	Z33	X34	Y34	Z34	X35	Y35	Z35	X36	Y36	Z36	X37	Y37	Z37	X38	Y38	Z38	X39	Y39	Z39	X40	Y40	Z40
1126	11.25	872.4889	1054.5085	-494.6445	643.3552	1046.4163	-574.639	623.9838	1047.2299	-619.0511	641.0561	1051.8396	-670.8669	845.6033	1051.8577	-785.0921	944.392	758.4098	-464.0199	874.7482	718.5876	-449.2696	926.6746	622.7399	-461.095	997.0387	521.2037	-589.3922	1002.8068	530.8455	-471.3551	1046.749	374.9878	-463.16	1071.2693	266.051	-476.5979	967.1925	356.4916	-452.3097	995.7363	247.3046	-456.7799	1051.9371	90.658	-461.6837	1083.3791	115.9583	-554.5338	1004.3448	38.1176	-519.3331	1172.5242	77.7568	-431.2756	1219.0083	92.0769	-518.5836	806.8307	743.3137	-788.5825	780.4175	638.4032	-771.904	725.4215	757.4957	-802.848	702.0404	652.806	-777.0825	718.2	499.9603	-645.0501	711.7822	503.9522	-753.8225	680.5786	371.6852	-765.054	602.568	396.1273	-770.4416	572.085	291.1858	-757.9112	567.0782	83.7612	-740.3318	597.5158	93.5772	-642.4799	499.9794	46.756	-684.9943	671.2266	32.8022	-757.8716	711.941	46.2347	-658.9187	814.457	1452.7272	-466.8864	796.1538	1459.1802	-774.9104	757.5234	1488.481	-621.7707	717.9818	1164.0322	-626.5264	894.7572	1394.1677	-628.05	921.4028	1248.3218	-624.4093	676.2891	1387.2131	-543.0098
1127	11.26	873.0164	1052.6768	-494.3463	643.6249	1044.4714	-573.4697	624.1013	1045.2342	-617.8325	641.0088	1049.7433	-669.6996	845.1132	1049.5429	-784.588	943.6364	755.2392	-464.0731	874.1681	716.1844	-448.1153	925.4159	619.9655	-460.0863	994.0636	517.7133	-588.8211	1001.6269	528.2175	-470.7925	1051.1683	374.428	-462.5483	1080.0367	266.4783	-476.102	972.3369	352.7196	-451.4595	1005.3348	244.6729	-456.0192	1068.4684	89.8612	-461.4957	1098.4349	116.671	-554.3622	1022.8033	35.3125	-518.8785	1189.9287	82.1437	-431.4012	1235.3318	98.534	-518.86	803.9308	741.4128	-787.924	776.2992	636.7666	-771.1289	722.7637	756.4913	-802.3721	698.1769	652.1196	-776.4416	712.5352	499.0214	-644.6524	705.7234	503.2104	-753.337	672.7549	371.3229	-764.6308	595.0781	396.795	-769.6667	563.1706	292.2843	-757.317	555.6909	84.4913	-740.0676	586.349	93.8996	-642.3224	488.2938	47.9175	-684.6589	659.4375	32.9347	-757.848	700.2064	46.2916	-658.832	814.7736	1450.6096	-466.2129	795.8874	1457.1796	-774.1349	757.5074	1486.4545	-621.0259	717.7479	1161.9795	-625.7833	894.7493	1392.0792	-627.5413	921.1577	1246.2045	-624.1279	676.4123	1385.17	-542.1111
1128	11.27	873.606	1050.87	-493.9114	643.9454	1042.4468	-572.1336	624.2648	1043.1456	-616.4397	640.9968	1047.5569	-668.3637	844.6395	1047.2333	-783.9709	943.252	752.1893	-464.0878	874.0154	713.9456	-446.9579	924.598	617.3716	-459.0475	991.5715	514.5266	-588.1797	1000.6164	525.6841	-470.1934	1054.6258	373.6752	-462.0166	1087.0878	266.684	-475.8102	976.4404	349.3174	-451.0004	1013.09	242.3444	-455.7407	1081.9636	89.2547	-461.8285	1110.9344	117.4385	-554.5897	1038.1082	33.2054	-519.2084	1203.957	85.8578	-431.8085	1248.5603	104.1302	-519.2754	801.2916	739.5325	-787.2273	772.5389	635.1363	-770.3062	720.3237	755.4575	-801.6885	694.6571	651.3785	-775.636	707.4917	498.0058	-644.1582	700.2112	502.413	-752.7838	665.3853	370.9364	-764.1303	588.0882	397.5193	-768.835	554.622	293.5048	-756.702	544.4039	85.397	-739.8307	575.2943	94.4164	-642.1826	476.613	49.4055	-684.3323	647.6822	33.0962	-757.8232	688.5013	46.345	-658.7164	815.173	1448.462	-465.4694	795.667	1455.1509	-773.2866	757.5331	1484.4153	-620.2153	717.569	1159.8965	-624.9377	894.7937	1389.944	-626.9688	920.9842	1244.0367	-623.7578	676.5879	1383.111	-541.1163
1129	11.28	874.2673	1049.1118	-493.3239	644.3199	1040.3876	-570.6161	624.4744	1041.0095	-614.852	641.0266	1045.3264	-666.8412	844.1992	1044.9662	-783.2327	943.3129	749.3758	-464.0554	874.3232	711.9175	-445.8931	924.2862	615.0244	-458.0984	989.7856	511.7996	-587.5494	999.8827	523.3152	-469.6529	1057.1691	372.6555	-461.6567	1092.3791	266.4993	-475.7892	979.48	346.2758	-450.9688	1018.9036	240.2159	-455.971	1092.1356	88.6177	-462.6593	1120.6539	117.9672	-555.2152	1049.8955	31.5647	-520.2869	1214.3733	88.5473	-432.4256	1258.5408	108.4131	-519.7513	798.9272	737.7128	-786.4822	769.1642	633.5388	-769.4411	718.1083	754.4247	-800.7882	691.4947	650.6033	-774.6709	703.1188	496.9047	-643.5947	695.2854	501.5752	-752.1851	658.5171	370.5387	-763.578	581.6396	398.3214	-767.9782	546.4802	294.8729	-756.1011	533.241	86.518	-739.6525	564.3634	95.1733	-642.0774	464.9558	51.2894	-684.0539	635.9722	33.2808	-757.8181	676.8238	46.3885	-658.5866	815.6454	1446.3185	-464.6515	795.496	1453.1262	-772.3643	757.5938	1482.3978	-619.335	717.4713	1157.8164	-623.9765	894.8918	1387.7988	-626.3301	920.9013	1241.8591	-623.2893	676.8108	1381.067	-540.0289
